<svg xmlns="http://www.w3.org/2000/svg" viewBox="0 0 680 440" fill="none">
<defs><linearGradient id="body" x1="455" y1="205" x2="455" y2="330" gradientUnits="userSpaceOnUse"><stop stop-color="#fffef5"/><stop offset="1" stop-color="#e5e9df"/></linearGradient></defs>
<path d="M0 263c70-24 108-10 159-25s102-10 156 5 93-22 164-16 124 14 201-8v159H0Z" fill="#dbe7d3"/><path d="M0 303c100-21 211 7 320-7s245-13 360 11v71H0Z" fill="#cbdcc5"/>
<g stroke="#b7cbb1" stroke-width="3"><path d="M65 254v-66m0 33-16-12m16 28 17-17M604 258v-80m0 38-18-15m18 32 19-19"/></g><g fill="#cadabe"><ellipse cx="65" cy="180" rx="25" ry="40"/><ellipse cx="604" cy="176" rx="29" ry="42"/></g>
<path d="M0 330h680v34H0z" fill="#b2bfb0"/><path d="M0 347h680" stroke="#f2f2dd" stroke-width="2" stroke-dasharray="28 23"/><ellipse cx="345" cy="326" rx="248" ry="12" fill="#657d66" opacity=".17"/>
<path d="m112 294 20-11h297v22H112z" fill="#23675a"/><path d="M108 300h326v11H108z" fill="#185447"/><path d="m141 309 32 12h238v-12" fill="#24453f"/><path d="m327 285 66-99 17 9-57 92" fill="#cf9e49"/><path d="m354 253 19-38 31-9 6-11-17-9-66 99h19" fill="#e6b760"/><path d="M399 195h31" stroke="#294a43" stroke-width="5"/><path d="M424 195v37c0 13-17 13-17 3" stroke="#294a43" stroke-width="4"/>
<path d="M440 215h69l37 55h31c12 0 21 9 21 21v24H427v-83c0-10 4-17 13-17Z" fill="url(#body)" stroke="#9cab9b" stroke-width="1.5"/><path d="M447 225h57l27 41h-84z" fill="#7a9a91"/><path d="m482 225 23 41h26l-27-41" fill="#4e766b"/><path d="M454 228h22l19 32h-41" fill="#9cb7a8"/><path d="M442 273v34m94-32v29" stroke="#bac5b7"/><path d="M449 278h13" stroke="#4b6e61" stroke-width="3" stroke-linecap="round"/><path d="M430 295h159v12H430z" fill="#177765"/><path d="M584 285h12v9h-12z" fill="#f1ce79"/><path d="M596 305h10v12h-10z" fill="#32564b"/><path d="M435 209h70v7h-70z" fill="#668073"/><path d="M458 199h24v10h-24z" fill="#e4ac4c"/><path d="M462 196h16v4h-16" fill="#f9d185"/><path d="M423 268h10v20h-10M540 262h13v7h-13" fill="#365d51"/>
<g><circle cx="187" cy="311" r="27" fill="#29453e"/><circle cx="187" cy="311" r="16" fill="#87978a"/><circle cx="187" cy="311" r="10" fill="#d6ddd0"/><circle cx="187" cy="311" r="4" fill="#526c5f"/><circle cx="551" cy="311" r="27" fill="#29453e"/><circle cx="551" cy="311" r="16" fill="#87978a"/><circle cx="551" cy="311" r="10" fill="#d6ddd0"/><circle cx="551" cy="311" r="4" fill="#526c5f"/></g>
<path d="m130 250 32-14 28-31c5-5 10-7 21-7h61c8 0 15 4 23 11l30 28 24 9c8 3 12 8 12 17v17H125v-18c0-5 1-8 5-12Z" fill="#f3f6ed" stroke="#a2b3a2" stroke-width="1.5"/><path d="m175 234 25-26h33v28h-58Zm66-26h28c5 0 9 2 14 7l23 21h-65z" fill="#6b9082"/><path d="m206 210 17 24h-41zM247 211h19l24 22h-24" fill="#a2baab" opacity=".6"/><path d="M236 240v30m74-28 6 25M138 260h211" stroke="#b8c7b6"/><path d="M215 244h11m59 0h11" stroke="#718e7c" stroke-width="3" stroke-linecap="round"/><path d="M125 258h13v9h-13" fill="#d78b64"/><path d="M346 251h11v9h-11" fill="#f5d596"/>
<circle cx="170" cy="278" r="20" fill="#2b473f"/><circle cx="170" cy="278" r="11" fill="#b5c1ae"/><circle cx="170" cy="278" r="5" fill="#68806d"/><circle cx="317" cy="278" r="20" fill="#2b473f"/><circle cx="317" cy="278" r="11" fill="#b5c1ae"/><circle cx="317" cy="278" r="5" fill="#68806d"/>
<text x="452" y="290" fill="#226653" font-family="sans-serif" font-size="8" font-weight="700" letter-spacing="1">SAWARIYA</text><path d="M97 161h45m-22-12h50M503 139h38" stroke="#fffef4" stroke-width="6" stroke-linecap="round"/><g transform="translate(359 107)"><path d="M0 15a19 19 0 1 1 38 0c0 15-19 32-19 32S0 30 0 15Z" fill="#0c7061"/><circle cx="19" cy="15" r="7" fill="#f4f6dd"/></g></svg>
